<?xml version="1.0" standalone="no"?><!DOCTYPE svg PUBLIC "-//W3C//DTD SVG 1.1//EN" "http://www.w3.org/Graphics/SVG/1.1/DTD/svg11.dtd"><svg t="1688612005257" class="icon" viewBox="0 0 1024 1024" version="1.1" xmlns="http://www.w3.org/2000/svg" p-id="20275" xmlns:xlink="http://www.w3.org/1999/xlink" width="200" height="200"><path d="M512 1024c282.768291 0 512-229.231709 512-512S794.768291 0 512 0 0 229.231709 0 512s229.231709 512 512 512z" fill="#8792BD" p-id="20276" data-spm-anchor-id="a313x.7781069.0.i13" class="selected"></path><path d="M527.937164 128v283.838836l239.904581 107.198837L527.937164 128z" fill="#FFFFFF" fill-opacity=".602" p-id="20277"></path><path d="M527.937164 128l-239.937164 391.037673 239.937164-107.194182V128z" fill="#FFFFFF" p-id="20278"></path><path d="M527.937164 702.980655v192.865745L768 563.716655l-240.062836 139.264z" fill="#FFFFFF" fill-opacity=".602" p-id="20279"></path><path d="M527.937164 895.8464v-192.898327l-239.937164-139.231418 239.937164 332.129745z" fill="#FFFFFF" p-id="20280"></path><path d="M527.937164 658.338909l239.904581-139.296582-239.904581-107.138327v246.434909z" fill="#FFFFFF" fill-opacity=".2" p-id="20281"></path><path d="M288 519.042327l239.937164 139.296582V411.904l-239.937164 107.138327z" fill="#FFFFFF" fill-opacity=".602" p-id="20282"></path></svg>